HIERARCHY
ROOT Hips
{
	OFFSET 0.000000 100.481300 0.000000
	CHANNELS 6 Xposition Yposition Zposition Xrotation Yrotation Zrotation 
	JOINT Spine
	{
		OFFSET -0.279200 12.230698 -2.892100
		CHANNELS 3 Xrotation Yrotation Zrotation
		JOINT Spine1
		{
			OFFSET -0.232667 10.192268 -1.242267
			CHANNELS 3 Xrotation Yrotation Zrotation
			JOINT Spine1_split
			{
				OFFSET -0.232667 10.192268 -1.242267
				CHANNELS 3 Xrotation Yrotation Zrotation
				JOINT Spine2
				{
					OFFSET -0.232667 10.192268 -1.242267
					CHANNELS 3 Xrotation Yrotation Zrotation
					JOINT Neck
					{
						OFFSET -0.418800 17.814194 8.416900
						CHANNELS 3 Xrotation Yrotation Zrotation
						JOINT Head
						{
							OFFSET 0.000000 7.031097 3.806800
							CHANNELS 3 Xrotation Yrotation Zrotation
							JOINT HeadTop_End
							{
								OFFSET 0.000000 24.646606 12.978600
								CHANNELS 3 Xrotation Yrotation Zrotation
								End Site
								{
									OFFSET 0.000000 0.000000 0.000000
								}
							}
						}
					}
					JOINT LeftShoulder
					{
						OFFSET 8.476499 7.247704 -3.868750
						CHANNELS 3 Xrotation Yrotation Zrotation
						JOINT LeftShoulder_split
						{
							OFFSET 8.476499 7.247704 -3.868750
							CHANNELS 3 Xrotation Yrotation Zrotation
							JOINT LeftArm
							{
								OFFSET 9.308998 -2.777710 0.208600
								CHANNELS 3 Xrotation Yrotation Zrotation
								JOINT LeftForeArm
								{
									OFFSET 29.972298 0.000000 0.000000
									CHANNELS 3 Xrotation Yrotation Zrotation
									JOINT LeftHand
									{
										OFFSET 26.026505 0.000000 0.000000
										CHANNELS 3 Xrotation Yrotation Zrotation
										JOINT LeftHandThumb1
										{
											OFFSET 12.240501 -7.147949 9.207150
											CHANNELS 3 Xrotation Yrotation Zrotation
											JOINT LeftHandThumb2
											{
												OFFSET 4.138618 -2.389435 2.389433
												CHANNELS 3 Xrotation Yrotation Zrotation
												JOINT LeftHandThumb3
												{
													OFFSET 2.726913 -1.574387 1.574386
													CHANNELS 3 Xrotation Yrotation Zrotation
													JOINT LeftHandThumb4
													{
														OFFSET 3.941010 -2.275345 2.275342
														CHANNELS 3 Xrotation Yrotation Zrotation
														End Site
														{
															OFFSET 0.000000 0.000000 0.000000
														}
													}
												}
											}
										}
										JOINT LeftHandIndex1
										{
											OFFSET 24.424698 -1.985611 5.953459
											CHANNELS 3 Xrotation Yrotation Zrotation
											JOINT LeftHandIndex2
											{
												OFFSET 6.426697 0.000000 0.000000
												CHANNELS 3 Xrotation Yrotation Zrotation
												JOINT LeftHandIndex3
												{
													OFFSET 5.337898 0.000000 0.000000
													CHANNELS 3 Xrotation Yrotation Zrotation
													JOINT LeftHandIndex4
													{
														OFFSET 4.409401 0.000000 0.000000
														CHANNELS 3 Xrotation Yrotation Zrotation
														End Site
														{
															OFFSET 0.000000 0.000000 0.000000
														}
													}
												}
											}
										}
										JOINT LeftHandMiddle1
										{
											OFFSET 23.810104 0.000000 0.000000
											CHANNELS 3 Xrotation Yrotation Zrotation
											JOINT LeftHandMiddle2
											{
												OFFSET 7.176498 0.000000 0.000000
												CHANNELS 3 Xrotation Yrotation Zrotation
												JOINT LeftHandMiddle3
												{
													OFFSET 6.774902 0.000000 0.000000
													CHANNELS 3 Xrotation Yrotation Zrotation
													JOINT LeftHandMiddle4
													{
														OFFSET 5.403328 0.000000 0.000000
														CHANNELS 3 Xrotation Yrotation Zrotation
														End Site
														{
															OFFSET 0.000000 0.000000 0.000000
														}
													}
												}
											}
										}
										JOINT LeftHandRing1
										{
											OFFSET 22.908401 -0.839279 -6.020567
											CHANNELS 3 Xrotation Yrotation Zrotation
											JOINT LeftHandRing2
											{
												OFFSET 6.337502 0.000000 0.000000
												CHANNELS 3 Xrotation Yrotation Zrotation
												JOINT LeftHandRing3
												{
													OFFSET 5.779297 0.000000 0.000000
													CHANNELS 3 Xrotation Yrotation Zrotation
													JOINT LeftHandRing4
													{
														OFFSET 4.965698 0.000000 0.000000
														CHANNELS 3 Xrotation Yrotation Zrotation
														End Site
														{
															OFFSET 0.000000 0.000000 0.000000
														}
													}
												}
											}
										}
										JOINT LeftHandPinky1
										{
											OFFSET 20.037003 -1.530319 -10.950146
											CHANNELS 3 Xrotation Yrotation Zrotation
											JOINT LeftHandPinky2
											{
												OFFSET 5.254700 0.000000 0.000000
												CHANNELS 3 Xrotation Yrotation Zrotation
												JOINT LeftHandPinky3
												{
													OFFSET 4.810204 0.000000 0.000000
													CHANNELS 3 Xrotation Yrotation Zrotation
													JOINT LeftHandPinky4
													{
														OFFSET 3.647202 0.000000 0.000000
														CHANNELS 3 Xrotation Yrotation Zrotation
														End Site
														{
															OFFSET 0.000000 0.000000 0.000000
														}
													}
												}
											}
										}
									}
								}
							}
						}
					}
					JOINT RightShoulder
					{
						OFFSET -7.570500 7.247704 -3.868750
						CHANNELS 3 Xrotation Yrotation Zrotation
						JOINT RightShoulder_split
						{
							OFFSET -7.570500 7.247704 -3.868750
							CHANNELS 3 Xrotation Yrotation Zrotation
							JOINT RightArm
							{
								OFFSET -9.308998 -2.777710 0.208500
								CHANNELS 3 Xrotation Yrotation Zrotation
								JOINT RightForeArm
								{
									OFFSET -29.972300 0.000000 0.000000
									CHANNELS 3 Xrotation Yrotation Zrotation
									JOINT RightHand
									{
										OFFSET -26.026505 0.000000 0.000000
										CHANNELS 3 Xrotation Yrotation Zrotation
										JOINT RightHandThumb1
										{
											OFFSET -12.240601 -7.148026 9.207092
											CHANNELS 3 Xrotation Yrotation Zrotation
											JOINT RightHandThumb2
											{
												OFFSET -4.138618 -2.389435 2.389433
												CHANNELS 3 Xrotation Yrotation Zrotation
												JOINT RightHandThumb3
												{
													OFFSET -2.726974 -1.574417 1.574421
													CHANNELS 3 Xrotation Yrotation Zrotation
													JOINT RightHandThumb4
													{
														OFFSET -3.941010 -2.275345 2.275343
														CHANNELS 3 Xrotation Yrotation Zrotation
														End Site
														{
															OFFSET 0.000000 0.000000 0.000000
														}
													}
												}
											}
										}
										JOINT RightHandIndex1
										{
											OFFSET -24.424698 -1.985657 5.953444
											CHANNELS 3 Xrotation Yrotation Zrotation
											JOINT RightHandIndex2
											{
												OFFSET -6.426697 0.000000 0.000000
												CHANNELS 3 Xrotation Yrotation Zrotation
												JOINT RightHandIndex3
												{
													OFFSET -5.337898 0.000000 0.000000
													CHANNELS 3 Xrotation Yrotation Zrotation
													JOINT RightHandIndex4
													{
														OFFSET -4.409401 0.000000 0.000000
														CHANNELS 3 Xrotation Yrotation Zrotation
														End Site
														{
															OFFSET 0.000000 0.000000 0.000000
														}
													}
												}
											}
										}
										JOINT RightHandMiddle1
										{
											OFFSET -23.810097 0.000000 0.000000
											CHANNELS 3 Xrotation Yrotation Zrotation
											JOINT RightHandMiddle2
											{
												OFFSET -7.176498 0.000000 0.000000
												CHANNELS 3 Xrotation Yrotation Zrotation
												JOINT RightHandMiddle3
												{
													OFFSET -6.774902 0.000000 0.000000
													CHANNELS 3 Xrotation Yrotation Zrotation
													JOINT RightHandMiddle4
													{
														OFFSET -5.403328 0.000000 0.000000
														CHANNELS 3 Xrotation Yrotation Zrotation
														End Site
														{
															OFFSET 0.000000 0.000000 0.000000
														}
													}
												}
											}
										}
										JOINT RightHandRing1
										{
											OFFSET -22.908302 -0.839325 -6.020576
											CHANNELS 3 Xrotation Yrotation Zrotation
											JOINT RightHandRing2
											{
												OFFSET -6.337502 0.000000 0.000000
												CHANNELS 3 Xrotation Yrotation Zrotation
												JOINT RightHandRing3
												{
													OFFSET -5.779297 0.000000 0.000000
													CHANNELS 3 Xrotation Yrotation Zrotation
													JOINT RightHandRing4
													{
														OFFSET -4.965698 0.000000 0.000000
														CHANNELS 3 Xrotation Yrotation Zrotation
														End Site
														{
															OFFSET 0.000000 0.000000 0.000000
														}
													}
												}
											}
										}
										JOINT RightHandPinky1
										{
											OFFSET -20.037003 -1.530334 -10.950259
											CHANNELS 3 Xrotation Yrotation Zrotation
											JOINT RightHandPinky2
											{
												OFFSET -5.254700 0.000000 0.000000
												CHANNELS 3 Xrotation Yrotation Zrotation
												JOINT RightHandPinky3
												{
													OFFSET -4.810204 0.000000 0.000000
													CHANNELS 3 Xrotation Yrotation Zrotation
													JOINT RightHandPinky4
													{
														OFFSET -3.647202 0.000000 0.000000
														CHANNELS 3 Xrotation Yrotation Zrotation
														End Site
														{
															OFFSET 0.000000 0.000000 0.000000
														}
													}
												}
											}
										}
									}
								}
							}
						}
					}
				}
			}
		}
	}
	JOINT LeftUpLeg
	{
		OFFSET 15.427100 -6.655098 0.678600
		CHANNELS 3 Xrotation Yrotation Zrotation
		JOINT LeftLeg
		{
			OFFSET 4.081073 -39.591068 13.024000
			CHANNELS 3 Xrotation Yrotation Zrotation
			JOINT LeftFoot
			{
				OFFSET -4.081074 -37.707932 -15.979700
				CHANNELS 3 Xrotation Yrotation Zrotation
				JOINT LeftToeBase
				{
					OFFSET 5.346399 -15.068900 20.645000
					CHANNELS 3 Xrotation Yrotation Zrotation
					JOINT LeftToe_End
					{
						OFFSET 2.754700 0.931300 11.300900
						CHANNELS 3 Xrotation Yrotation Zrotation
						End Site
						{
							OFFSET 0.000000 0.000000 0.000000
						}
					}
				}
			}
		}
	}
	JOINT RightUpLeg
	{
		OFFSET -15.569500 -6.655098 0.678600
		CHANNELS 3 Xrotation Yrotation Zrotation
		JOINT RightLeg
		{
			OFFSET -4.081825 -39.591045 13.023800
			CHANNELS 3 Xrotation Yrotation Zrotation
			JOINT RightFoot
			{
				OFFSET 4.081824 -37.707954 -15.979600
				CHANNELS 3 Xrotation Yrotation Zrotation
				JOINT RightToeBase
				{
					OFFSET -5.346400 -15.068900 20.645000
					CHANNELS 3 Xrotation Yrotation Zrotation
					JOINT RightToe_End
					{
						OFFSET -2.754700 0.931300 11.300900
						CHANNELS 3 Xrotation Yrotation Zrotation
						End Site
						{
							OFFSET 0.000000 0.000000 0.000000
						}
					}
				}
			}
		}
	}
}
MOTION
Frames: 6
Frame Time: 0.016667
0.624829 69.161575 -0.795271 11.721466 2.979501 -1.332199 9.926267 1.519617 1.231670 7.645339 0.753230 0.067567 0.000000 0.000000 0.000000 7.636951 0.840685 0.048856 -11.425862 -1.903121 7.327009 -27.420392 2.052766 -6.271737 -0.000000 0.000000 -0.000000 3.557337 -26.212547 4.772365 0.000000 0.000000 0.000000 -62.403265 -21.804192 -66.739001 0.000073 -109.450435 0.000089 0.778323 -4.236623 14.397158 -15.245211 10.163104 26.456302 3.939042 7.948704 0.746813 -0.579462 1.574989 2.538713 0.000001 -0.000001 -0.000000 0.000001 -0.000000 0.000006 -0.000002 0.000018 -0.000070 0.000001 0.000007 -0.000042 -0.000000 0.000000 -0.000000 -0.000005 -0.001923 0.015974 0.000000 0.001937 -0.016038 -0.000000 0.000010 -0.000047 0.000000 0.000000 -0.000001 0.000001 -0.000000 0.000004 -0.000003 0.000020 -0.000068 0.000003 0.000010 -0.000047 -0.000002 0.000000 -0.000001 -0.018085 4.054256 0.511067 -0.018090 -4.054237 -0.511129 -0.000006 0.000009 -0.000053 -0.000002 0.000001 0.000000 1.209605 13.189584 10.689362 0.000000 0.000000 0.000000 -58.736792 43.251220 51.659828 -0.000066 106.371857 0.000074 2.773301 -4.037753 -38.887716 -6.948217 -5.049351 -29.743008 4.637208 -8.634120 -0.225407 -1.273760 0.137305 -2.094860 -0.000000 0.000001 -0.000001 -0.000003 -0.000001 0.000003 0.000010 -0.000005 0.000086 -0.000004 0.000005 0.000021 0.000000 -0.000000 -0.000000 -0.000003 -0.000001 0.000003 0.000010 -0.000007 0.000086 -0.000009 0.000007 0.000025 -0.000000 0.000001 -0.000000 -0.000002 0.000001 0.000007 0.000009 -0.000006 0.000083 -0.000003 0.000007 0.000021 -0.000000 0.000001 0.000000 -0.000003 -0.000001 0.000003 0.000010 -0.000008 0.000086 -0.000003 0.000007 0.000021 0.000000 0.000000 0.000000 -52.689056 0.311851 6.583575 74.806226 6.649343 -1.280843 -32.354118 5.895056 -6.692304 -0.000003 0.000005 -0.000001 -0.000000 0.000000 0.000000 -48.247930 -14.255099 -6.424748 74.060486 -7.289521 -4.055862 -37.765902 -10.735289 5.285567 0.000004 -0.000000 0.000000 -0.000000 -0.000000 -0.000000 
0.626936 69.165680 -0.791237 11.744125 2.974940 -1.339004 9.917844 1.528325 1.224324 7.639424 0.760471 0.063173 0.000000 0.000000 0.000000 7.630970 0.847824 0.044426 -11.435408 -1.910256 7.339549 -27.433918 2.035674 -6.273735 0.000000 0.000000 0.000000 3.557341 -26.212547 4.772365 0.000000 0.000000 0.000000 -62.419337 -21.858361 -66.778643 0.000036 -109.501381 0.000043 0.901644 -4.326311 14.359151 -15.245206 10.163102 26.456304 3.939039 7.948699 0.746813 -0.579465 1.574989 2.538713 0.000001 0.000000 -0.000001 0.000003 0.000001 0.000004 -0.000001 0.000016 -0.000068 0.000002 0.000008 -0.000042 -0.000001 -0.000001 0.000001 -0.000003 -0.001918 0.015975 0.000002 0.001940 -0.016037 -0.000001 0.000013 -0.000048 0.000000 -0.000002 -0.000002 0.000003 0.000001 0.000005 -0.000002 0.000020 -0.000068 0.000002 0.000012 -0.000047 -0.000002 -0.000002 -0.000001 -0.018085 4.054259 0.511066 -0.018091 -4.054241 -0.511129 -0.000005 0.000008 -0.000054 -0.000000 -0.000000 0.000001 1.208782 13.185486 10.706560 0.000000 0.000000 0.000000 -58.718494 43.222537 51.623167 -0.000074 106.496398 0.000087 2.902263 -4.000204 -38.894799 -6.948217 -5.049358 -29.743001 4.637208 -8.634123 -0.225403 -1.273761 0.137304 -2.094857 -0.000001 0.000000 -0.000002 -0.000003 -0.000004 0.000004 0.000010 -0.000005 0.000086 -0.000004 0.000009 0.000021 -0.000000 0.000003 -0.000000 -0.000003 -0.000004 0.000004 0.000010 -0.000005 0.000086 -0.000009 0.000004 0.000025 -0.000000 -0.000000 0.000000 -0.000002 -0.000001 0.000007 0.000009 -0.000005 0.000082 -0.000004 0.000005 0.000021 -0.000000 0.000001 0.000000 -0.000003 -0.000004 0.000004 0.000010 -0.000006 0.000086 -0.000003 0.000007 0.000021 0.000000 0.000002 0.000000 -52.703796 0.301327 6.605996 74.803795 6.643574 -1.310712 -32.349975 5.894125 -6.682396 -0.000003 0.000003 -0.000001 0.000000 -0.000000 -0.000000 -48.264296 -14.259097 -6.414620 74.050370 -7.296595 -4.064072 -37.760028 -10.734883 5.293058 0.000004 -0.000000 0.000000 0.000000 -0.000000 0.000000 
0.629606 69.167702 -0.786577 11.764732 2.969381 -1.350052 9.909039 1.539681 1.218530 7.633171 0.769256 0.058698 0.000000 0.000000 0.000000 7.624630 0.856616 0.039881 -11.444195 -1.923866 7.361600 -27.436183 1.999900 -6.276384 0.000000 -0.000000 -0.000000 3.557336 -26.212548 4.772365 0.000000 0.000000 0.000000 -62.439574 -21.913830 -66.819549 -0.000088 -109.545777 -0.000094 1.016399 -4.380413 14.319685 -15.245208 10.163103 26.456302 3.939041 7.948702 0.746813 -0.579463 1.574991 2.538712 0.000000 0.000002 0.000000 0.000002 0.000003 0.000005 -0.000003 0.000016 -0.000069 0.000003 0.000013 -0.000040 0.000002 0.000001 -0.000002 -0.000003 -0.001919 0.015973 0.000004 0.001938 -0.016039 -0.000002 0.000007 -0.000049 -0.000000 0.000001 -0.000000 0.000002 0.000003 0.000003 -0.000002 0.000020 -0.000070 0.000002 0.000009 -0.000048 0.000001 0.000003 0.000002 -0.018086 4.054258 0.511065 -0.018087 -4.054241 -0.511127 -0.000004 0.000007 -0.000054 -0.000001 -0.000000 0.000001 1.207722 13.175772 10.734724 0.000000 0.000000 0.000000 -58.706869 43.206124 51.589648 0.000025 106.607245 -0.000028 2.994836 -3.971784 -38.906021 -6.948218 -5.049364 -29.743008 4.637206 -8.634122 -0.225402 -1.273761 0.137302 -2.094858 0.000000 -0.000003 -0.000002 -0.000003 -0.000008 0.000003 0.000010 -0.000009 0.000086 -0.000004 0.000003 0.000021 0.000000 -0.000001 0.000000 -0.000003 -0.000008 0.000003 0.000010 -0.000011 0.000086 -0.000009 0.000000 0.000024 -0.000000 0.000001 -0.000000 -0.000002 -0.000006 0.000006 0.000009 -0.000006 0.000083 -0.000003 0.000007 0.000020 -0.000000 -0.000002 -0.000000 -0.000003 -0.000008 0.000003 0.000010 -0.000011 0.000086 -0.000003 0.000004 0.000020 0.000000 0.000000 0.000000 -52.718320 0.285669 6.630906 74.807647 6.635295 -1.344500 -32.346454 5.904790 -6.668880 -0.000003 0.000003 -0.000001 0.000000 -0.000000 -0.000000 -48.277409 -14.266697 -6.402229 74.041778 -7.302668 -4.071097 -37.755978 -10.734618 5.299992 0.000004 -0.000000 0.000000 -0.000000 -0.000000 -0.000000 
0.633136 69.167870 -0.781252 11.783137 2.962751 -1.364088 9.899958 1.554099 1.213699 7.626661 0.780096 0.054113 0.000000 0.000000 0.000000 7.617971 0.867545 0.035189 -11.454977 -1.944255 7.391725 -27.423194 1.943258 -6.281664 0.000000 0.000000 0.000000 3.557335 -26.212548 4.772365 0.000000 0.000000 0.000000 -62.470365 -21.974015 -66.864499 0.000039 -109.579696 0.000055 1.123965 -4.400892 14.281676 -15.245208 10.163106 26.456304 3.939041 7.948708 0.746812 -0.579463 1.574990 2.538713 -0.000000 0.000001 -0.000000 0.000002 0.000004 0.000004 -0.000002 0.000016 -0.000068 0.000002 0.000007 -0.000041 -0.000000 0.000002 0.000001 -0.000004 -0.001918 0.015974 0.000003 0.001937 -0.016038 -0.000003 0.000015 -0.000049 0.000001 0.000002 -0.000001 0.000002 0.000004 0.000005 -0.000004 0.000021 -0.000070 0.000003 0.000008 -0.000050 -0.000001 -0.000000 0.000002 -0.018085 4.054259 0.511065 -0.018090 -4.054241 -0.511128 -0.000007 0.000010 -0.000052 -0.000000 0.000003 0.000002 1.206693 13.162150 10.768369 0.000000 0.000000 0.000000 -58.707621 43.191159 51.562710 -0.000060 106.707055 0.000073 3.052730 -3.952011 -38.913340 -6.948217 -5.049360 -29.743005 4.637209 -8.634122 -0.225403 -1.273761 0.137303 -2.094859 -0.000000 0.000004 -0.000000 -0.000003 -0.000002 0.000004 0.000010 -0.000005 0.000086 -0.000003 0.000007 0.000020 -0.000000 0.000003 -0.000000 -0.000003 -0.000002 0.000004 0.000010 -0.000007 0.000087 -0.000009 0.000006 0.000025 -0.000000 -0.000003 0.000001 -0.000002 0.000001 0.000007 0.000009 -0.000007 0.000083 -0.000003 0.000005 0.000020 -0.000000 0.000002 -0.000000 -0.000003 -0.000002 0.000004 0.000010 -0.000007 0.000086 -0.000004 0.000006 0.000020 -0.000000 0.000000 0.000000 -52.732783 0.270767 6.655617 74.816185 6.625533 -1.376012 -32.344310 5.923400 -6.652793 -0.000003 0.000002 -0.000001 0.000000 0.000000 0.000000 -48.287272 -14.276405 -6.390081 74.034872 -7.308008 -4.075498 -37.753570 -10.732646 5.306978 0.000004 -0.000000 0.000000 0.000000 -0.000000 -0.000000 
0.637873 69.167221 -0.775299 11.800505 2.954714 -1.379199 9.891099 1.571292 1.208825 7.620001 0.793060 0.049375 0.000000 0.000000 0.000000 7.611136 0.880646 0.030306 -11.470299 -1.969854 7.427054 -27.400911 1.869801 -6.289242 0.000000 -0.000000 0.000000 3.557337 -26.212547 4.772365 0.000000 0.000000 0.000000 -62.514174 -22.042327 -66.916046 0.000046 -109.608820 0.000041 1.236732 -4.410134 14.244750 -15.245208 10.163101 26.456302 3.939041 7.948709 0.746813 -0.579465 1.574992 2.538713 0.000001 -0.000001 0.000000 0.000002 -0.000001 0.000003 0.000000 0.000016 -0.000069 0.000002 0.000010 -0.000041 0.000000 0.000003 0.000000 -0.000002 -0.001924 0.015973 0.000001 0.001938 -0.016038 -0.000002 0.000012 -0.000049 -0.000000 -0.000000 -0.000000 0.000002 -0.000001 0.000003 -0.000001 0.000017 -0.000070 0.000003 0.000009 -0.000048 -0.000001 0.000000 0.000000 -0.018086 4.054257 0.511063 -0.018088 -4.054240 -0.511130 -0.000006 0.000011 -0.000053 0.000001 -0.000000 0.000000 1.205950 13.146151 10.801878 0.000000 0.000000 0.000000 -58.722674 43.168571 51.544087 0.000051 106.809412 -0.000034 3.102363 -3.933555 -38.909672 -6.948217 -5.049359 -29.743008 4.637211 -8.634124 -0.225406 -1.273758 0.137304 -2.094854 -0.000000 0.000006 -0.000000 -0.000003 -0.000003 0.000004 0.000010 -0.000006 0.000086 -0.000004 0.000003 0.000021 0.000000 0.000001 -0.000000 -0.000003 -0.000003 0.000004 0.000010 -0.000006 0.000086 -0.000009 0.000004 0.000026 -0.000000 0.000001 0.000000 -0.000002 0.000000 0.000007 0.000009 -0.000008 0.000083 -0.000004 0.000006 0.000021 -0.000000 0.000003 0.000000 -0.000003 -0.000003 0.000003 0.000010 -0.000006 0.000086 -0.000004 0.000007 0.000021 0.000000 -0.000000 0.000000 -52.746925 0.262837 6.677237 74.826396 6.615594 -1.399080 -32.346143 5.944619 -6.635711 -0.000003 0.000002 -0.000001 -0.000000 -0.000001 0.000000 -48.295352 -14.285918 -6.381057 74.028896 -7.313246 -4.076216 -37.752610 -10.727049 5.314810 0.000004 -0.000000 0.000000 0.000000 -0.000000 0.000000 
0.644008 69.167030 -0.768703 11.818439 2.944813 -1.393447 9.882649 1.590142 1.203018 7.613307 0.807592 0.044600 0.000000 0.000000 0.000000 7.604249 0.895363 0.025347 -11.490456 -1.997045 7.463691 -27.382795 1.790933 -6.296956 0.000000 0.000000 -0.000000 3.557333 -26.212541 4.772365 0.000000 0.000000 0.000000 -62.567251 -22.118497 -66.973461 0.000122 -109.642807 0.000141 1.366185 -4.438065 14.205768 -15.245209 10.163105 26.456304 3.939041 7.948715 0.746814 -0.579464 1.574990 2.538712 -0.000001 -0.000000 -0.000001 -0.000000 -0.000000 0.000004 -0.000001 0.000016 -0.000069 0.000002 0.000010 -0.000043 0.000000 0.000000 0.000000 -0.000005 -0.001919 0.015974 0.000003 0.001935 -0.016037 -0.000003 0.000014 -0.000050 0.000000 0.000001 0.000000 -0.000000 -0.000000 0.000005 -0.000002 0.000017 -0.000070 0.000001 0.000011 -0.000050 -0.000000 -0.000003 0.000001 -0.018087 4.054258 0.511066 -0.018088 -4.054239 -0.511127 -0.000006 0.000013 -0.000053 -0.000001 -0.000001 -0.000001 1.205638 13.127820 10.832414 0.000000 0.000000 0.000000 -58.749394 43.137999 51.533921 0.000232 106.926605 -0.000240 3.177648 -3.907303 -38.893536 -6.948217 -5.049362 -29.743005 4.637208 -8.634122 -0.225402 -1.273760 0.137305 -2.094861 -0.000002 0.000000 -0.000003 -0.000003 -0.000003 0.000004 0.000010 -0.000007 0.000086 -0.000004 0.000003 0.000021 0.000000 -0.000000 0.000000 -0.000003 -0.000003 0.000004 0.000010 -0.000005 0.000086 -0.000010 0.000005 0.000025 0.000000 0.000004 0.000000 -0.000002 -0.000001 0.000007 0.000009 -0.000006 0.000082 -0.000003 0.000005 0.000020 -0.000000 -0.000002 0.000000 -0.000003 -0.000003 0.000004 0.000010 -0.000006 0.000086 -0.000003 0.000006 0.000021 0.000000 0.000000 0.000000 -52.761340 0.265476 6.693787 74.834913 6.607011 -1.410178 -32.351556 5.963391 -6.619307 -0.000003 0.000005 -0.000001 -0.000000 -0.000001 0.000000 -48.303532 -14.293403 -6.377221 74.022448 -7.318777 -4.072964 -37.751063 -10.716154 5.324260 0.000004 -0.000000 0.000000 -0.000000 -0.000000 -0.000000 
